# xmcd
#
# Track frame offsets:
#	150
#	18945
#	36480
#	49584
#	71339
#	87790
#	107904
#	122327
#	131160
#	151645
#	185800
#	201128
#
# Disc length: 2983 seconds
#
# Revision: 1
# Processed by: cddbd v1.4PL0 Copyright (c) Steve Scherf et al.
# Submitted via: EasyCDDAExtractor 5.1.0
#
DISCID=9b0ba50c
DTITLE=Wayne Mills - Ain't it Great to Be... ...aLIVE At Harry's II
DYEAR=2001
DGENRE=country
TTITLE0=Ain't It Great To Be Alive
TTITLE1=Outlaw Women
TTITLE2=Guitar Town
TTITLE3=Crossin' Dixie
TTITLE4=12:00 on Sunday
TTITLE5=Wolves
TTITLE6=The Honeymoon
TTITLE7=Instrumental
TTITLE8=Country Roads
TTITLE9=My Home's In Alabama
TTITLE10=2.00 Sticker
TTITLE11=Little Angel
EXTD=
EXTT0=
EXTT1=
EXTT2=
EXTT3=
EXTT4=
EXTT5=
EXTT6=
EXTT7=
EXTT8=
EXTT9=
EXTT10=
EXTT11=
PLAYORDER=
